<svg width="718" height="192" viewBox="0 0 718 192" fill="none" xmlns="http://www.w3.org/2000/svg">
<path id="Vector 1" d="M45 56C32.9621 56 18.5391 52.9511 10.0556 63.5556C0.00120306 76.1235 -0.272347 92.0107 8.22222 105.778C14.667 116.223 29.464 126.305 42.4444 123.944C45.6069 123.369 45.2387 117.033 44.2222 115C42.0404 110.636 38.3997 107.4 35 104C32.8691 101.869 29.6416 100 26.5556 100C21.6871 100 32.0043 100.041 33.4444 100C37.0477 99.897 40.0569 98 43.7778 98C46.3518 98 48.9259 98 51.5 98C52.9515 98 54.4571 109.927 55.2222 112.222C56.0958 114.843 55.9618 117.275 57 119.611C58.038 121.947 59 124.528 59 127" stroke="#030303" stroke-width="3" stroke-linecap="round"/>
<path id="Vector 2" d="M62 93C62.6729 99.7286 73.4923 108.191 80 108C86.3178 107.814 90 99.567 90 94.2222C90 91.8761 90 88.7746 90 93C90 96.5926 90 100.185 90 103.778C90 112.926 90 122.074 90 131.222C90 140.405 89.0998 145.714 82.4444 152C78.9104 155.338 71.6556 154.683 69 150.778C64.2647 143.814 70.5746 137.963 76.6667 136.222C80.3857 135.16 83.8902 136.514 87.5556 134.778C89.2265 133.986 92.193 133 94 133" stroke="#030303" stroke-width="3" stroke-linecap="round"/>
<path id="Vector 3" d="M111 95C100.066 96.0934 88.7131 115.713 97.2222 124.222C99.0878 126.088 110.713 131.395 112 126.889C113.852 120.408 117.116 115.759 113 109.222C112.567 108.534 105 97.3814 105 103.5C105 106.887 109.193 109.879 112.222 110C116.3 110.163 120.417 110 124.5 110C128.622 110 132.065 102.869 129.444 99.5C128.388 98.1417 120.798 94.2613 122.778 98C124.568 101.382 128 105.209 128 109C128 112.07 129.748 114.357 131 117.111C132.5 120.41 132.797 125.347 133 129C133.083 130.489 134 120.795 134 118.5C134 113.023 133.285 101.378 140.556 100.056C149.702 98.3927 152 119.053 152 125" stroke="#030303" stroke-width="3" stroke-linecap="round"/>
<path id="Vector 4" d="M179 52C181.039 59.1377 184.11 65.8918 186.556 72.8889C188.063 77.2011 187.381 81.4557 188.444 85.7778C190.131 92.6302 191.386 99.5555 192.222 106.556C192.924 112.436 193.159 119.476 195 125" stroke="#030303" stroke-width="3" stroke-linecap="round"/>
<path id="Vector 5" d="M163 74C171.003 60.1768 188.78 54.179 200.944 45.0556C207.591 40.0705 210.662 50.0202 209.389 55.1111C207.079 64.3501 201.712 72.4766 196.222 80C193.06 84.3339 187.657 90.0276 186 95" stroke="#030303" stroke-width="3" stroke-linecap="round"/>
<path id="Vector 6" d="M212 86C212.543 91.1555 216.175 96.6608 217.556 101.778C218.961 106.986 218.287 114.086 217.944 119.389C217.75 122.41 216.779 126.523 215.944 129.444C215.564 130.774 212.083 131.931 212 129.778C211.429 114.935 217.045 105.942 224.833 94C229.63 86.6455 235.598 80.6785 240.833 73.6111C242.602 71.2233 244.078 67.9217 246 66" stroke="#030303" stroke-width="3" stroke-linecap="round"/>
<path id="Vector 7" d="M256 84C247.297 92.7034 233.254 101.243 239 115.778C247.04 136.115 269.509 113.643 273.944 102.556C277.735 93.0791 273.743 87.9221 270 79.5C267.831 74.6203 258 79.6824 258 84" stroke="#030303" stroke-width="3" stroke-linecap="round"/>
<path id="Vector 8" d="M265 78C265.553 83.5319 269.794 88.4155 270 93.7778C270.146 97.5806 275.425 101.859 279.222 102C291.641 102.46 300.442 94.3722 310 88" stroke="#030303" stroke-width="3" stroke-linecap="round"/>
<path id="Vector 9" d="M302 113C304.018 95.1774 313 79.1192 313 61C313 56.3333 313 51.6667 313 47C313 44.2112 310.759 26.1111 308.5 26.1111C306.208 26.1111 309.5 64.0056 310.222 67.7778C311.767 75.8434 312.722 86.4186 316.667 93.6667C320.553 100.807 326.412 106.412 332 112" stroke="#030303" stroke-width="3" stroke-linecap="round"/>
<path id="Vector 10" d="M292 70C303.679 70 318.709 64.2908 327 56" stroke="#030303" stroke-width="3" stroke-linecap="round"/>
<path id="Vector 11" d="M356 50C346.274 53.9789 337.275 58.2639 334 68.7778C330.962 78.5305 331.511 86.966 336 95.9444C340.249 104.443 347.198 96.2561 349.778 91C354.775 80.8212 353 67.0798 353 56C353 54.2421 352.536 45.4349 353.5 47.5556C354.702 50.199 353.531 53.1152 355 55.7778C356.868 59.1641 357.221 63.2808 359.222 66.6667C363.246 73.4767 368.367 80.8165 377 76.5C380.148 74.9258 386.533 71.9331 388 69" stroke="#030303" stroke-width="3" stroke-linecap="round"/>
<path id="Vector 12" d="M376 18C376.64 26.3161 379.727 34.1807 380 42.5556C380.376 54.0877 383.389 66.0814 385.556 77.3333C387.152 85.6271 391 95.6684 391 104" stroke="#030303" stroke-width="3" stroke-linecap="round"/>
<path id="Vector 13" d="M368 38C369.813 32.763 372.896 28.0628 375.111 23C376.557 19.696 380.464 13.3484 383.5 11.1111C388.783 7.21862 402.425 -1.49926 405.556 8.44444C410.316 23.5665 399.404 32.7299 394 44.8889C391.157 51.2859 384 56.3065 384 64" stroke="#030303" stroke-width="3" stroke-linecap="round"/>
<path id="Vector 14" d="M448 36C454.224 36.6552 460.951 39.365 467.111 40.7778C474.586 42.4923 482.725 43 490.389 43C503.379 43 514.351 41.7108 525.778 35C533.088 30.7069 540 22.778 540 14.0556C540 8.04342 534.458 1.75613 527.889 2.16667C514.794 2.98513 502.041 14.3489 496.222 25.5556C491.893 33.8926 487.174 43.4418 487 53C486.489 81.0998 520.475 75.2637 539 82C553.161 87.1496 558.12 102.849 558.778 116.444C559.757 136.691 547.215 151.701 527.944 156.889C512.312 161.098 497.069 150.916 488.444 138.222C485.233 133.496 476.347 121.73 480.444 115.222C484.28 109.131 492.359 115.841 494 119.944C496.67 126.62 499.156 133.855 500.056 141.056C500.729 146.445 503.842 151.915 504 157.444C504.076 160.114 503.291 165.646 506 167" stroke="#030303" stroke-width="3" stroke-linecap="round"/>
<path id="Vector 15" d="M570 78C570 95.1172 572.331 111.448 574.778 128.333C575.831 135.601 578 142.66 578 150" stroke="#030303" stroke-width="3" stroke-linecap="round"/>
<path id="Vector 16" d="M568 64C568 66.6483 567.844 69.3551 568 72C568.157 74.6674 572.575 72.3666 573.222 71C573.828 69.7212 575.228 63.131 573 63C570.409 62.8476 568.442 64 566 64" stroke="#030303" stroke-width="3" stroke-linecap="round"/>
<path id="Vector 17" d="M584 75C584 91.3615 592 106.835 592 123C592 125.4 592.005 142.003 594 143" stroke="#030303" stroke-width="3" stroke-linecap="round"/>
<path id="Vector 18" d="M584 85C585.368 78.8433 598.379 78.4849 602.944 79.0556C610.504 80.0005 615.163 90.6273 617.556 96.5C619.658 101.661 620.099 106.617 621.444 112C622.615 116.682 621.267 121.553 622.222 126.222C623.286 131.424 623.037 139.556 626 144" stroke="#030303" stroke-width="3" stroke-linecap="round"/>
<path id="Vector 19" d="M658 78C648.101 77.0572 638.444 76 628.5 76C625.366 76 627.153 86.0943 628 88C631.833 96.6251 634.727 105.454 639 114C645.072 126.145 659.048 123.132 665.778 113.556C670.584 106.715 669.017 89.7333 661.778 85C658.485 82.8473 656 80.3598 656 85.5556C656 93.7972 657.883 101.393 658.778 109.556C660.298 123.425 660 137.386 660 151.333C660 162.381 659.813 171.916 655.556 182.222C652.822 188.84 647.657 193.255 641 187.222C634.237 181.093 635.297 171.431 640 164.444C645.656 156.041 655.658 155.13 664.278 151.556C668.833 149.667 674.361 147.16 679 146" stroke="#030303" stroke-width="3" stroke-linecap="round"/>
<path id="Vector 20" d="M677 62C677.508 76.2194 682.136 88.3004 685.333 101.889C687.612 111.574 687.688 121.778 689.556 131.556C690.946 138.833 693 146.675 693 154" stroke="#030303" stroke-width="3" stroke-linecap="round"/>
<path id="Vector 21" d="M685 114C690.679 108.794 716 91.9425 716 110.5C716 126.432 714 142.014 714 158" stroke="#030303" stroke-width="3" stroke-linecap="round"/>
</svg>
